<?xml version="1.0" standalone="no"?><!DOCTYPE svg PUBLIC "-//W3C//DTD SVG 1.1//EN" "http://www.w3.org/Graphics/SVG/1.1/DTD/svg11.dtd"><svg t="1577765541957" class="icon" viewBox="0 0 1024 1024" version="1.1" xmlns="http://www.w3.org/2000/svg" p-id="11965" xmlns:xlink="http://www.w3.org/1999/xlink" width="200" height="200"><defs><style type="text/css"></style></defs><path d="M512 597.333333c-4.266667 0-8.533333 0-12.8-4.266667l-469.333333-170.666667C12.8 418.133333 0 401.066667 0 384s12.8-34.133333 29.866667-38.4l469.333333-170.666667c8.533333-4.266667 21.333333-4.266667 29.866667 0l469.333333 170.666667C1011.2 349.866667 1024 366.933333 1024 384s-12.8 34.133333-29.866667 38.4l-469.333333 170.666667C520.533333 597.333333 516.266667 597.333333 512 597.333333zM166.4 384l345.6 123.733333L857.6 384 512 260.266667 166.4 384z" p-id="11966"></path><path d="M810.666667 853.333333l-298.666667 0c-25.6 0-42.666667-17.066667-42.666667-42.666667s17.066667-42.666667 42.666667-42.666667l256 0c-4.266667-110.933333-29.866667-204.8-72.533333-273.066667-12.8-21.333333-4.266667-46.933333 12.8-59.733333 21.333333-12.8 46.933333-4.266667 59.733333 12.8 55.466667 89.6 85.333333 213.333333 85.333333 358.4C853.333333 836.266667 836.266667 853.333333 810.666667 853.333333z" p-id="11967"></path><path d="M512 853.333333 213.333333 853.333333c-25.6 0-42.666667-17.066667-42.666667-42.666667 0-145.066667 29.866667-268.8 85.333333-358.4 12.8-21.333333 38.4-25.6 59.733333-12.8 21.333333 12.8 25.6 38.4 12.8 59.733333-42.666667 68.266667-68.266667 162.133333-72.533333 273.066667l256 0c25.6 0 42.666667 17.066667 42.666667 42.666667S537.6 853.333333 512 853.333333z" p-id="11968"></path><path d="M938.666667 853.333333c-25.6 0-42.666667-17.066667-42.666667-42.666667L896 384c0-25.6 17.066667-42.666667 42.666667-42.666667s42.666667 17.066667 42.666667 42.666667l0 426.666667C981.333333 836.266667 964.266667 853.333333 938.666667 853.333333z" p-id="11969"></path></svg>