<?xml version="1.0" standalone="no"?><!DOCTYPE svg PUBLIC "-//W3C//DTD SVG 1.1//EN" "http://www.w3.org/Graphics/SVG/1.1/DTD/svg11.dtd"><svg t="1577759149042" class="icon" viewBox="0 0 1365 1024" version="1.1" xmlns="http://www.w3.org/2000/svg" p-id="3608" xmlns:xlink="http://www.w3.org/1999/xlink" width="266.6015625" height="200"><defs><style type="text/css"></style></defs><path d="M1308.444444 1024H56.888889a56.888889 56.888889 0 0 1-56.888889-56.888889V56.888889a56.888889 56.888889 0 0 1 56.888889-56.888889h1251.555555a56.888889 56.888889 0 0 1 56.888889 56.888889v910.222222a56.888889 56.888889 0 0 1-56.888889 56.888889z m0-938.666667a28.444444 28.444444 0 0 0-28.444444-28.444444H85.333333a28.444444 28.444444 0 0 0-28.444444 28.444444v853.333334a28.444444 28.444444 0 0 0 28.444444 28.444444h1194.666667a28.444444 28.444444 0 0 0 28.444444-28.444444V85.333333zM704.085333 730.823111a31.544889 31.544889 0 0 1-42.837333 0L150.044444 220.444444a29.184 29.184 0 0 1 41.301334-41.216L682.666667 669.696 1174.044444 178.346667a29.212444 29.212444 0 0 1 41.301334 41.301333z" p-id="3609"></path></svg>