<?xml version="1.0" standalone="no"?><!DOCTYPE svg PUBLIC "-//W3C//DTD SVG 1.1//EN" "http://www.w3.org/Graphics/SVG/1.1/DTD/svg11.dtd"><svg t="1577759088192" class="icon" viewBox="0 0 1024 1024" version="1.1" xmlns="http://www.w3.org/2000/svg" p-id="1966" xmlns:xlink="http://www.w3.org/1999/xlink" width="200" height="200"><defs><style type="text/css"></style></defs><path d="M789.333333 213.333333H426.666667V0h-192v85.333333h106.666666v128h-21.333333C144.128 213.333333 0 344.085333 0 512v298.666667h469.333333v213.333333h84.864V810.666667H1024V490.666667c0-137.258667-97.28-277.333333-234.666667-277.333334zM85.333333 725.333333V512c0-120.874667 106.261333-213.333333 234.666667-213.333333h21.333333v149.333333c-25.621333 14.784-42.666667 32.490667-42.666666 64 0 47.125333 35.797333 85.333333 83.349333 85.333333S469.333333 559.125333 469.333333 512c0-31.509333-17.045333-49.216-42.666666-64v-149.333333h192c-42.816 52.202667-64 122.666667-64 192v234.666666H85.333333z m853.333334 0H640V490.666667c0-90.346667 63.104-192 149.333333-192s149.333333 101.653333 149.333334 192v234.666666z" p-id="1967"></path></svg>