<?xml version="1.0" standalone="no"?><!DOCTYPE svg PUBLIC "-//W3C//DTD SVG 1.1//EN" "http://www.w3.org/Graphics/SVG/1.1/DTD/svg11.dtd"><svg t="1577759128223" class="icon" viewBox="0 0 1024 1024" version="1.1" xmlns="http://www.w3.org/2000/svg" p-id="2788" xmlns:xlink="http://www.w3.org/1999/xlink" width="200" height="200"><defs><style type="text/css"></style></defs><path d="M1007.390516 872.805035c-10.335164 14.792267-38.560078 50.602436-70.240269 83.621802-55.212879 57.533436-81.515923 65.190248-96.502422 65.190248-0.480468 0-0.950712 0-1.410734-0.020446l-0.633809-0.020446c-20.465874-0.644031-74.820045-2.37167-162.214029-43.661212-106.909144-50.510431-227.332718-142.361518-357.938114-272.98736s-222.436038-251.090306-272.936246-358.030119c-41.269097-87.404206-42.986513-141.737932-43.630544-162.193583l-0.010223-0.592917c-0.470245-14.741154 5.775833-40.941971 65.139135-97.954047 32.998922-31.680191 68.819312-59.935773 83.642248-70.301606 11.919685-8.300844 31.005492-17.715963 54.466621-15.51808 17.613737 1.645857 32.804689 9.629796 41.678006 21.897054 11.919685 16.49946 125.882502 189.293999 138.333768 208.952277 12.308148 19.382266 10.376055 48.58856-5.193139 78.091313-8.995989 17.163938-39.51079 70.77185-52.830987 94.089861 14.076677 20.332979 53.48524 72.836839 136.779916 156.121291 108.92302 108.943465 165.199061 142.872653 165.751088 143.199781 9.691133 5.755388 12.921511 18.278213 7.186568 27.989791-5.734943 9.701355-18.216877 12.952178-27.938678 7.237682-2.412561-1.420957-60.477577-36.065736-173.919037-149.507195-113.461905-113.451682-148.055569-171.537144-149.466304-173.959927-3.710845-6.317637-3.751736-14.138014-0.11245-20.496542 0.470245-0.82804 47.310721-82.640421 58.361476-103.709436 10.069374-19.09603 9.548015-32.91714 6.849218-37.159566-11.82768-18.666676-125.790498-191.461214-136.943479-206.897513-3.332605-4.610444-20.016075-10.437391-39.592572 3.19971-11.56189 8.086167-45.981769 34.859455-78.377549 65.936506-52.50386 50.326422-52.953659 67.337019-52.943436 67.510804l0.010223 0.582694c0.572472 18.135095 2.095656 66.294302 39.735691 146.021249 48.486334 102.676942 137.607956 219.287441 264.870524 346.580679 127.272792 127.293237 243.852624 216.425082 346.498897 264.921638 79.706503 37.660479 127.9066 39.193886 146.041695 39.766358l0.633809 0.020446c0.092005 0 4.385544-0.132895 14.945608-6.818551s27.386651-19.92407 52.514083-46.155554c31.056605-32.416226 57.799226-66.805437 65.885393-78.377549 13.800664-19.719616 8.075944-36.167963 3.475723-39.388118-13.238415-9.272002-186.247629-124.430877-206.825954-137.004816-4.497994-2.749911-16.12122-2.811247-30.985046 3.588172-2.116102 0.909822-4.252649 1.932093-6.358528 3.046369-9.987592 5.264698-22.357076 1.451626-27.631997-8.535966-5.27492-9.987592-1.451626-22.357076 8.535966-27.631997 3.056592-1.615189 6.184742-3.107705 9.30267-4.446881 26.088366-11.22454 51.052235-11.551667 68.461517-0.909822 20.966787 12.809061 193.137739 127.313682 208.9625 138.395104 12.635275 8.852871 20.793 24.156274 22.367299 41.984687C1024.319331 831.341707 1022.499688 851.224885 1007.390516 872.805035z" p-id="2789"></path></svg>