<?xml version="1.0" standalone="no"?><!DOCTYPE svg PUBLIC "-//W3C//DTD SVG 1.1//EN" "http://www.w3.org/Graphics/SVG/1.1/DTD/svg11.dtd"><svg t="1577765495243" class="icon" viewBox="0 0 1210 1024" version="1.1" xmlns="http://www.w3.org/2000/svg" p-id="11059" xmlns:xlink="http://www.w3.org/1999/xlink" width="236.328125" height="200"><defs><style type="text/css"></style></defs><path d="M1092.654545 0H74.752A74.938182 74.938182 0 0 0 0 74.752V701.905455a74.938182 74.938182 0 0 0 74.752 74.752h466.385455v141.032727H348.532364a41.425455 41.425455 0 0 0-41.285819 41.332363 41.425455 41.425455 0 0 0 41.285819 41.285819h468.433454a41.425455 41.425455 0 0 0 41.285818-41.285819 41.425455 41.425455 0 0 0-41.285818-41.332363H623.709091v-141.032727h468.945454a74.938182 74.938182 0 0 0 74.752-74.752V74.752A74.938182 74.938182 0 0 0 1092.654545 0z m-7.819636 82.618182V693.992727H82.618182V82.618182h1002.216727z" fill="#666666" p-id="11060"></path></svg>